<svg xmlns="http://www.w3.org/2000/svg" width="100" height="100" viewBox="0 0 100 100">
  <!-- 背景圆形 -->
  <circle cx="50" cy="50" r="50" fill="#FF9F8B" />
  
  <!-- 猫脸 -->
  <circle cx="50" cy="50" r="40" fill="#FFFFFF" />
  
  <!-- 猫耳朵 -->
  <path d="M28 25 L40 40 L20 45 Z" fill="#FF9F8B" />
  <path d="M72 25 L60 40 L80 45 Z" fill="#FF9F8B" />
  
  <!-- 猫眼睛 -->
  <circle cx="35" cy="45" r="5" fill="#333333" />
  <circle cx="65" cy="45" r="5" fill="#333333" />
  
  <!-- 猫眼光点 -->
  <circle cx="33" cy="43" r="2" fill="#FFFFFF" />
  <circle cx="63" cy="43" r="2" fill="#FFFFFF" />
  
  <!-- 猫鼻子 -->
  <circle cx="50" cy="55" r="3" fill="#FF9F8B" />
  
  <!-- 猫嘴巴 -->
  <path d="M50 58 Q50 65 40 62 M50 58 Q50 65 60 62" stroke="#333333" stroke-width="1.5" fill="none" />
  
  <!-- 猫胡须 -->
  <line x1="35" y1="58" x2="25" y2="55" stroke="#333333" stroke-width="1" />
  <line x1="35" y1="60" x2="25" y2="60" stroke="#333333" stroke-width="1" />
  <line x1="35" y1="62" x2="25" y2="65" stroke="#333333" stroke-width="1" />
  
  <line x1="65" y1="58" x2="75" y2="55" stroke="#333333" stroke-width="1" />
  <line x1="65" y1="60" x2="75" y2="60" stroke="#333333" stroke-width="1" />
  <line x1="65" y1="62" x2="75" y2="65" stroke="#333333" stroke-width="1" />
</svg> 